<svg width="42" height="42" viewBox="0 0 42 42" fill="none" xmlns="http://www.w3.org/2000/svg">
<path d="M12.4688 13.7784H8.53125V10.4972H12.4688V13.7784Z" fill="#FFC94F"/>
<path d="M20.3438 13.7784H16.4062V10.4972H20.3438V13.7784Z" fill="#FFC94F"/>
<path d="M24.9375 20.3409H20.3438V17.0597H24.9375V20.3409Z" fill="#FFC94F"/>
<path d="M16.4062 20.3409H12.4688V17.0597H16.4062V20.3409Z" fill="#FFC94F"/>
<path d="M8.53125 20.3409H4.59375V17.0597H8.53125V20.3409Z" fill="#FFC94F"/>
<path d="M32.8125 38.7159C30.28 38.7159 28.2188 36.6547 28.2188 34.1222C28.2188 31.5897 30.28 29.5284 32.8125 29.5284C35.345 29.5284 37.4062 31.5897 37.4062 34.1222C37.4062 36.6547 35.345 38.7159 32.8125 38.7159ZM32.8125 32.8097C32.0887 32.8097 31.5 33.3983 31.5 34.1222C31.5 34.846 32.0887 35.4347 32.8125 35.4347C33.5363 35.4347 34.125 34.846 34.125 34.1222C34.125 33.3983 33.5363 32.8097 32.8125 32.8097Z" fill="#FFC94F"/>
<path d="M11.8125 38.7159C9.28003 38.7159 7.21875 36.6547 7.21875 34.1222C7.21875 31.5897 9.28003 29.5284 11.8125 29.5284C14.345 29.5284 16.4062 31.5897 16.4062 34.1222C16.4062 36.6547 14.345 38.7159 11.8125 38.7159ZM11.8125 32.8097C11.0887 32.8097 10.5 33.3983 10.5 34.1222C10.5 34.846 11.0887 35.4347 11.8125 35.4347C12.5363 35.4347 13.125 34.846 13.125 34.1222C13.125 33.3983 12.5363 32.8097 11.8125 32.8097Z" fill="#FFC94F"/>
<path d="M16.4062 7.21594H12.4688V3.93469H16.4062V7.21594Z" fill="#FFC94F"/>
<path d="M39.5299 23.6222L38.6544 23.1845L37.7626 17.8334C37.4981 16.244 36.1364 15.0909 34.526 15.0909H27.5625C26.4948 15.0909 25.5537 15.6113 24.9546 16.4034H22.9688V9.84094H19.0312V3.27844H9.84375V9.84094H5.90625V16.4034H1.96875V22.9659C1.24491 22.9659 0.65625 23.5546 0.65625 24.2784V25.5909C0.65625 26.3148 1.24491 26.9034 1.96875 26.9034V32.8097C1.96875 33.8951 2.85206 34.7784 3.9375 34.7784H7.27125C7.24041 34.5632 7.21875 34.3453 7.21875 34.1222C7.21875 33.8991 7.24041 33.6812 7.27125 33.4659H3.9375C3.57525 33.4659 3.28125 33.1719 3.28125 32.8097V32.1534H6.41878L7.40316 28.2159H3.28125V26.9034H24.2812V33.4659H16.3538C16.3846 33.6812 16.4062 33.8991 16.4062 34.1222C16.4062 34.3453 16.3846 34.5632 16.3538 34.7784H28.2713C28.2404 34.5632 28.2188 34.3453 28.2188 34.1222C28.2188 33.8991 28.2404 33.6812 28.2713 33.4659H28.2188V25.5909H33.4688H34.125H34.7812V29.978C35.2728 30.2123 35.7171 30.5286 36.0938 30.9138V22.3097L35.446 18.7883C35.3305 18.1674 34.7878 17.7159 34.1558 17.7159H28.2188C27.4949 17.7159 26.9062 18.3046 26.9062 19.0284V33.4659H25.5938V18.3722C25.5938 17.2868 26.4771 16.4034 27.5625 16.4034H34.526C35.4926 16.4034 36.309 17.0958 36.4678 18.0487L37.4699 24.0599L38.9425 24.7962C39.6139 25.1322 40.0312 25.8068 40.0312 26.5569V26.9034H37.4062V29.934L40.0312 31.2465V32.8097C40.0312 33.1719 39.7373 33.4659 39.375 33.4659H37.3537C37.3846 33.6812 37.4062 33.8991 37.4062 34.1222C37.4062 34.3453 37.3846 34.5632 37.3537 34.7784H39.375C40.4604 34.7784 41.3438 33.8951 41.3438 32.8097V26.5569C41.3438 25.3061 40.6488 24.1826 39.5299 23.6222ZM5.72184 29.5284L5.39372 30.8409H3.28125V29.5284H5.72184ZM34.125 24.2784H33.4688C32.7449 24.2784 32.1562 23.6898 32.1562 22.9659H34.7812V24.2784H34.125ZM34.1552 19.0284L34.6467 21.6534H32.1562C31.4324 21.6534 30.8438 22.2421 30.8438 22.9659C30.8438 23.4463 30.9829 23.8906 31.2086 24.2784H28.2188V19.0284H34.1552ZM24.2812 18.3722V22.9659H19.0312V17.7159H24.3475C24.3042 17.9279 24.2812 18.1478 24.2812 18.3722ZM17.7188 17.7159V22.9659H11.1562V17.7159H17.7188ZM21.6562 16.4034H19.0312H17.7188H15.0938V11.1534H21.6562V16.4034ZM11.1562 4.59094H17.7188V9.84094H15.0938H13.7812H11.1562V4.59094ZM7.21875 11.1534H13.7812V16.4034H11.1562H9.84375H7.21875V11.1534ZM3.28125 17.7159H9.84375V22.9659H3.28125V17.7159ZM1.96875 25.5909V24.2784H24.2812V25.5909H1.96875ZM38.7188 29.1229V28.2159H40.0312V29.7791L38.7188 29.1229Z" fill="#535353"/>
<path d="M32.8125 32.1534C31.7271 32.1534 30.8438 33.0368 30.8438 34.1222C30.8438 35.2076 31.7271 36.0909 32.8125 36.0909C33.8979 36.0909 34.7812 35.2076 34.7812 34.1222C34.7812 33.0368 33.8979 32.1534 32.8125 32.1534ZM32.8125 34.7784C32.4503 34.7784 32.1562 34.4844 32.1562 34.1222C32.1562 33.7599 32.4503 33.4659 32.8125 33.4659C33.1748 33.4659 33.4688 33.7599 33.4688 34.1222C33.4688 34.4844 33.1748 34.7784 32.8125 34.7784Z" fill="#535353"/>
<path d="M11.8125 32.1534C10.7271 32.1534 9.84375 33.0368 9.84375 34.1222C9.84375 35.2076 10.7271 36.0909 11.8125 36.0909C12.8979 36.0909 13.7812 35.2076 13.7812 34.1222C13.7812 33.0368 12.8979 32.1534 11.8125 32.1534ZM11.8125 34.7784C11.4503 34.7784 11.1562 34.4844 11.1562 34.1222C11.1562 33.7599 11.4503 33.4659 11.8125 33.4659C12.1748 33.4659 12.4688 33.7599 12.4688 34.1222C12.4688 34.4844 12.1748 34.7784 11.8125 34.7784Z" fill="#535353"/>
</svg>
